<?xml version="1.0" standalone="no"?>
<!DOCTYPE svg PUBLIC "-//W3C//DTD SVG 20010904//EN"
 "http://www.w3.org/TR/2001/REC-SVG-20010904/DTD/svg10.dtd">
<svg version="1.0" xmlns="http://www.w3.org/2000/svg"
 width="500.000000pt" height="500.000000pt" viewBox="0 0 500.000000 500.000000"
 preserveAspectRatio="xMidYMid meet">

<g transform="translate(0.000000,500.000000) scale(0.100000,-0.100000)"
fill="#000000" stroke="none">
<path d="M1384 3771 c-91 -42 -177 -178 -210 -336 -34 -162 -20 -418 32 -573
17 -52 17 -55 3 -46 -7 4 -10 1 -7 -7 3 -8 13 -12 23 -11 16 3 17 1 6 -12 -7
-9 -17 -13 -22 -10 -5 3 -9 -3 -9 -12 0 -16 1 -16 20 1 19 18 21 17 61 -29 77
-87 190 -120 275 -80 76 36 134 142 134 243 0 36 -11 68 -46 137 -33 65 -44
96 -40 117 8 40 -28 37 -54 -5 -38 -62 -27 -115 49 -234 55 -88 39 -179 -39
-219 -87 -45 -173 7 -235 140 -33 70 -71 210 -54 200 5 -3 20 2 34 11 20 13
25 13 26 3 0 -8 4 -5 8 6 6 13 4 22 -5 25 -11 4 -11 10 2 34 8 17 12 36 10 43
-7 16 18 28 35 18 8 -6 8 -9 -1 -15 -8 -5 -7 -9 4 -13 9 -4 16 -1 16 6 0 7 7
21 15 31 14 19 15 18 14 -15 0 -19 -3 -29 -5 -22 -3 7 -14 2 -30 -14 -27 -27
-26 -33 3 -37 18 -3 42 26 43 53 0 14 28 40 44 41 4 0 5 -7 2 -16 -5 -14 -4
-15 8 -5 8 7 13 18 10 26 -3 7 -1 16 5 19 5 4 13 27 17 51 7 51 21 60 21 15 0
-17 6 -36 13 -43 7 -7 11 -7 8 -2 -3 6 3 19 13 29 14 15 19 16 20 5 0 -8 4 -5
9 7 7 18 75 61 91 57 3 -1 4 8 2 21 -3 13 3 30 13 40 14 15 15 19 3 27 -9 5
-10 9 -2 9 6 0 15 -5 18 -11 4 -6 14 -8 22 -5 10 4 13 2 10 -8 -4 -10 0 -12
14 -9 10 3 19 11 19 19 0 7 6 11 14 8 15 -6 29 22 20 39 -5 9 -4 9 5 1 8 -7
12 -112 14 -375 2 -332 0 -367 -16 -396 l-18 -33 166 0 c145 0 171 2 205 20
50 25 78 66 92 134 11 52 10 60 -31 184 -47 142 -51 203 -16 242 17 19 17 20
-4 20 -32 0 -87 -58 -99 -104 -14 -50 -2 -116 40 -209 36 -82 47 -176 26 -217
-16 -30 -65 -49 -130 -49 -58 -1 -93 12 -108 39 -8 15 -11 139 -9 413 1 216 1
399 1 407 -6 128 -4 168 12 198 l17 32 -82 0 c-64 0 -79 -3 -71 -12 20 -26 34
-101 26 -152 -4 -28 -9 -45 -11 -38 -4 10 -8 10 -20 1 -12 -10 -16 -10 -24 2
-8 12 -10 12 -8 -1 1 -8 0 -22 -4 -30 -3 -8 -8 -28 -12 -43 -4 -19 -11 -27
-20 -24 -7 3 -16 -2 -20 -11 -4 -10 -9 -13 -13 -6 -4 6 -14 14 -22 17 -12 4
-11 6 3 6 9 1 17 6 17 11 0 6 6 10 14 10 7 0 21 11 30 25 18 27 21 49 6 40 -5
-3 -10 -1 -10 6 0 7 -6 5 -13 -6 -10 -12 -16 -14 -21 -7 -9 15 -56 -14 -56
-34 0 -8 -3 -13 -8 -11 -13 4 -49 -37 -65 -73 -15 -34 -15 -34 -16 -8 -1 23
-6 27 -41 33 -108 18 -219 -55 -277 -181 -13 -30 -27 -54 -30 -54 -3 0 -3 45
1 101 11 176 54 338 103 387 28 28 55 25 141 -19 101 -51 190 -32 208 43 6 28
6 28 -22 13 -31 -16 -60 -12 -116 16 -47 24 -111 24 -164 0z m466 -271 c0 -14
-6 -20 -17 -18 -11 2 -19 -6 -24 -22 -7 -26 -9 -23 -15 23 -1 15 1 25 6 22 5
-3 11 -1 15 5 11 18 35 11 35 -10z m-183 -72 c-3 -8 -6 -5 -6 6 -1 11 2 17 5
13 3 -3 4 -12 1 -19z m-132 -57 c37 -18 38 -19 13 -20 -37 -1 -79 -22 -71 -35
3 -6 3 -8 -2 -4 -12 11 -45 -10 -45 -28 0 -10 -6 -14 -14 -11 -8 3 -20 -2 -28
-11 -11 -13 -11 -14 1 -7 10 5 12 4 7 -4 -4 -6 -12 -9 -17 -5 -13 7 -85 -69
-109 -115 -15 -31 -18 -33 -24 -15 -10 31 11 123 39 170 53 91 160 127 250 85z
m65 -1 c0 -5 -2 -10 -4 -10 -3 0 -8 5 -11 10 -3 6 -1 10 4 10 6 0 11 -4 11
-10z"/>
<path d="M4215 3773 c-32 -9 -76 -14 -121 -11 l-72 3 16 -30 c15 -27 17 -83
17 -520 0 -450 -1 -493 -18 -522 l-18 -33 81 0 81 0 -18 33 c-16 29 -18 76
-23 487 l-5 455 -26 50 -27 50 117 2 c100 3 120 0 148 -16 64 -40 121 -187
109 -285 -3 -28 -28 -116 -56 -197 -66 -192 -79 -276 -58 -390 9 -47 26 -109
38 -137 l22 -52 50 0 c36 0 49 3 45 13 -69 155 -87 227 -94 362 -5 126 8 189
73 340 34 80 39 99 39 170 0 90 -19 137 -77 192 -58 56 -125 66 -223 36z"/>
<path d="M497 3743 c17 -25 18 -65 18 -528 0 -463 -1 -503 -18 -528 l-17 -27
80 0 c44 0 80 2 80 4 0 2 -7 17 -15 32 -12 24 -15 77 -15 285 0 249 1 257 23
300 45 84 132 128 227 113 l40 -7 0 -326 c0 -301 -2 -330 -19 -364 l-19 -37
79 0 c43 0 79 2 79 4 0 2 -7 17 -15 32 -22 43 -22 995 0 1038 8 15 15 30 15
32 0 2 -34 4 -75 4 -41 0 -75 -2 -75 -4 0 -2 7 -20 15 -39 10 -25 15 -71 15
-140 l0 -104 -49 -6 c-87 -10 -166 -67 -220 -157 l-21 -35 0 210 c0 167 3 216
15 239 8 15 15 30 15 32 0 2 -36 4 -80 4 l-80 0 17 -27z"/>
<path d="M2430 3767 c0 -3 7 -21 15 -40 18 -44 19 -50 3 -41 -20 13 -160 4
-210 -12 -30 -10 -48 -21 -48 -31 0 -11 7 -14 24 -11 16 3 27 0 30 -9 5 -13 8
-12 20 0 8 8 32 18 53 22 21 4 46 14 56 22 9 9 17 13 17 9 0 -12 -27 -36 -42
-37 -7 0 -3 -5 10 -11 17 -9 29 -7 56 7 31 17 35 17 50 2 15 -14 14 -16 -6
-20 -20 -4 -20 -4 4 -6 37 -1 48 -43 55 -201 6 -142 -4 -197 -61 -333 -19 -45
-40 -102 -46 -126 -34 -133 57 -295 174 -308 71 -8 108 4 165 52 60 51 87 56
128 21 70 -59 105 -76 155 -76 121 0 210 105 211 250 0 56 -7 83 -53 195 -52
126 -53 133 -58 247 -5 128 0 165 22 165 8 0 13 -4 11 -8 -3 -4 6 -14 20 -23
23 -15 25 -15 25 2 0 23 -38 55 -56 48 -29 -11 -5 104 42 196 13 26 24 50 24
53 0 3 -21 5 -47 3 -46 -3 -49 -5 -70 -48 -13 -25 -30 -82 -40 -127 -24 -117
-10 -217 58 -415 59 -169 65 -225 35 -313 -23 -68 -76 -138 -121 -159 -48 -23
-102 -10 -139 35 l-26 31 0 466 c0 395 2 471 15 496 8 15 15 30 15 32 0 2 -34
4 -75 4 -41 0 -75 -2 -75 -4 0 -2 7 -20 15 -39 13 -31 15 -110 15 -496 l0
-459 -25 -30 c-78 -92 -186 -51 -253 97 -20 44 -25 72 -25 131 0 64 7 95 50
215 50 138 77 272 68 340 -2 17 -6 53 -10 80 -3 28 -18 75 -33 105 -27 54 -28
55 -75 58 -26 2 -47 1 -47 -1z"/>
<path d="M3463 3759 c-52 -15 -76 -54 -71 -117 4 -43 13 -64 46 -110 123 -167
122 -161 24 -339 -104 -190 -120 -283 -81 -475 l12 -58 50 0 50 0 -7 33 c-33
159 -31 289 4 396 42 126 107 185 206 185 89 0 86 10 82 -289 -3 -228 -5 -264
-20 -288 -10 -14 -18 -29 -18 -32 0 -3 36 -5 80 -5 l81 0 -18 33 c-17 29 -18
72 -18 522 0 439 2 493 17 523 l16 32 -201 -1 c-111 0 -216 -5 -234 -10z m293
-23 c17 -13 19 -30 22 -205 l4 -191 -40 6 c-53 8 -116 -20 -170 -77 -47 -48
-49 -47 -27 4 25 59 19 123 -21 217 -56 135 -58 216 -6 244 37 21 210 22 238
2z"/>
<path d="M2590 3641 c0 -5 9 -7 20 -4 11 3 20 7 20 9 0 2 -9 4 -20 4 -11 0
-20 -4 -20 -9z"/>
<path d="M2058 3603 c-37 -4 -53 -26 -25 -36 14 -5 77 23 77 35 0 4 -3 7 -7 6
-5 -1 -25 -3 -45 -5z"/>
<path d="M2616 3602 c-3 -5 1 -9 9 -9 8 0 12 4 9 9 -3 4 -7 8 -9 8 -2 0 -6 -4
-9 -8z"/>
<path d="M2180 3589 c0 -5 5 -7 10 -4 6 3 10 8 10 11 0 2 -4 4 -10 4 -5 0 -10
-5 -10 -11z"/>
<path d="M2445 3590 c3 -5 8 -10 11 -10 2 0 4 5 4 10 0 6 -5 10 -11 10 -5 0
-7 -4 -4 -10z"/>
<path d="M2154 3571 c9 -14 -20 -21 -35 -8 -11 10 -11 9 0 -5 10 -14 18 -15
32 -7 20 10 26 29 8 29 -5 0 -8 -4 -5 -9z"/>
<path d="M2400 3568 c0 -4 6 -8 14 -8 8 0 17 4 20 8 2 4 -4 8 -15 8 -10 0 -19
-4 -19 -8z"/>
<path d="M3220 3441 c0 -17 38 -56 47 -48 4 5 0 14 -10 21 -9 7 -17 18 -17 25
0 6 -4 11 -10 11 -5 0 -10 -4 -10 -9z"/>
<path d="M3200 3420 c0 -5 5 -10 10 -10 6 0 10 5 10 10 0 6 -4 10 -10 10 -5 0
-10 -4 -10 -10z"/>
<path d="M3315 3350 c3 -5 8 -10 11 -10 2 0 4 5 4 10 0 6 -5 10 -11 10 -5 0
-7 -4 -4 -10z"/>
<path d="M3500 3090 c0 -6 7 -10 15 -10 8 0 15 2 15 4 0 2 -7 6 -15 10 -8 3
-15 1 -15 -4z"/>
<path d="M3543 3073 c-19 -7 -16 -23 5 -24 10 0 12 -3 5 -6 -7 -2 -13 -14 -13
-26 0 -18 2 -19 10 -7 7 11 10 11 10 2 0 -15 56 -72 71 -72 34 0 46 63 16 85
-9 7 -17 18 -17 26 0 11 -2 11 -10 -1 -7 -11 -10 -11 -10 -2 0 7 -4 10 -10 7
-5 -3 -10 -1 -10 5 0 6 -5 8 -11 4 -6 -3 -14 -2 -18 3 -3 6 -12 8 -18 6z"/>
<path d="M3648 2933 c-10 -2 -18 -7 -18 -10 0 -8 33 -32 45 -33 6 0 4 4 -4 9
-12 8 -12 12 -2 25 14 16 10 17 -21 9z"/>
<path d="M1113 2723 c-13 -8 -23 -23 -23 -32 0 -9 -4 -21 -10 -27 -5 -5 -11
-25 -14 -44 -2 -19 -7 -43 -11 -53 -4 -9 -2 -24 5 -32 6 -8 9 -19 5 -25 -3 -5
-3 -10 2 -10 20 1 32 19 43 63 7 26 16 47 21 47 5 0 9 21 9 46 0 25 5 54 10
65 13 24 -5 25 -37 2z"/>
<path d="M1052 2401 c-7 -4 -10 -15 -6 -24 3 -10 1 -17 -5 -17 -9 0 -9 -5 0
-21 8 -15 8 -19 0 -15 -20 13 -11 -15 12 -37 13 -12 24 -35 25 -52 1 -16 7
-31 12 -33 6 -2 10 -12 10 -23 0 -25 6 -24 39 4 21 17 26 28 20 42 -4 11 -10
33 -14 48 -3 15 -10 25 -15 22 -6 -3 -10 -1 -10 4 0 6 -12 11 -26 11 -20 0
-25 4 -20 16 4 9 1 23 -6 31 -9 11 -9 16 0 22 6 3 8 12 4 18 -4 7 -13 8 -20 4z"/>
<path d="M1091 2374 c0 -11 3 -14 6 -6 3 7 2 16 -1 19 -3 4 -6 -2 -5 -13z"/>
<path d="M1460 2371 c0 -5 7 -11 15 -15 12 -4 15 -28 15 -126 0 -98 -3 -122
-15 -126 -39 -15 -6 -24 88 -24 l104 0 10 35 c13 40 1 47 -25 16 -15 -18 -46
-25 -94 -22 -16 1 -18 14 -18 121 0 98 3 122 15 126 32 13 13 24 -40 24 -30 0
-55 -4 -55 -9z"/>
<path d="M1840 2374 c0 -3 7 -12 15 -20 11 -12 15 -41 15 -124 0 -83 -4 -112
-15 -124 -23 -23 -19 -26 35 -26 54 0 58 3 35 26 -11 12 -15 41 -15 124 0 83
4 112 15 124 23 23 19 26 -35 26 -27 0 -50 -3 -50 -6z"/>
<path d="M2110 2370 c0 -5 7 -10 15 -10 13 0 15 -21 15 -125 0 -102 -3 -127
-15 -131 -32 -12 -13 -24 38 -23 50 0 51 1 30 16 -21 14 -23 23 -23 120 l0
104 102 -120 c57 -67 108 -121 115 -121 10 0 13 32 13 129 0 102 3 133 15 145
23 23 19 26 -37 26 -53 0 -53 -1 -30 -18 21 -17 23 -24 20 -112 l-3 -95 -94
113 c-86 102 -97 112 -128 112 -18 0 -33 -4 -33 -10z"/>
<path d="M2606 2359 c15 -17 20 -42 24 -125 5 -96 7 -106 32 -130 45 -45 154
-34 187 19 9 13 16 62 19 125 3 75 8 105 18 109 31 12 11 23 -38 22 -51 0 -52
-1 -30 -16 20 -14 22 -23 22 -104 0 -98 -11 -131 -47 -148 -34 -15 -90 -4
-108 22 -22 31 -21 215 0 223 32 13 12 24 -42 24 l-56 0 19 -21z"/>
<path d="M3091 2358 c14 -13 40 -45 58 -71 31 -45 32 -51 20 -75 -8 -15 -37
-51 -66 -79 l-52 -53 50 0 c45 0 66 13 37 22 -9 3 -1 21 22 55 19 28 38 49 42
46 4 -2 20 -25 35 -50 18 -32 23 -48 15 -51 -30 -10 -7 -22 43 -22 30 0 55 1
55 3 0 2 -19 23 -42 48 -24 25 -52 61 -62 81 l-20 36 39 51 c22 28 47 54 57
57 34 10 18 24 -28 24 -40 0 -45 -2 -39 -19 5 -18 -31 -91 -45 -91 -7 0 -50
68 -50 80 0 5 5 10 10 10 6 0 10 5 10 10 0 6 -25 10 -56 10 l-57 0 24 -22z"/>
<path d="M3781 2254 c0 -11 3 -14 6 -6 3 7 2 16 -1 19 -3 4 -6 -2 -5 -13z"/>
<path d="M3745 2211 c-3 -5 -1 -12 5 -16 5 -3 10 1 10 9 0 18 -6 21 -15 7z"/>
<path d="M1220 2173 c0 -12 7 -28 15 -36 12 -13 11 -15 -9 -13 -13 0 -22 6
-19 12 2 7 -1 15 -7 19 -7 4 -9 -1 -6 -17 10 -54 19 -78 29 -78 6 0 2 -6 -9
-14 -23 -18 -27 -15 -30 27 -3 27 -5 42 -13 90 -2 11 -25 8 -46 -6 -11 -9 -15
-19 -10 -27 6 -10 10 -8 17 9 4 12 12 19 18 16 6 -4 7 -13 1 -24 -6 -10 -6
-23 0 -32 5 -7 9 -24 9 -36 0 -13 4 -23 9 -23 5 0 13 -15 16 -32 9 -42 22 -58
49 -59 11 0 15 -3 9 -6 -15 -5 -18 -43 -4 -43 5 0 17 -7 26 -16 14 -15 14 -17
-2 -30 -12 -9 -14 -13 -5 -14 8 0 22 10 32 23 17 20 19 20 25 5 4 -10 13 -18
20 -18 7 0 25 -14 40 -32 19 -23 23 -33 14 -39 -10 -6 -10 -16 0 -51 34 -110
44 -120 137 -137 91 -17 172 -8 119 13 -8 3 -15 15 -15 26 0 20 -39 67 -52 63
-4 -2 -11 9 -14 23 -6 22 -10 24 -38 19 -24 -5 -27 -4 -14 5 24 15 12 39 -19
37 -20 -2 -30 6 -45 36 -12 22 -27 37 -38 37 -10 0 -21 7 -24 16 -4 10 -13 13
-28 9 -17 -5 -19 -4 -9 4 18 12 22 51 5 51 -6 0 -15 11 -18 25 -4 14 -13 25
-21 25 -8 0 -15 4 -15 9 0 5 -15 18 -32 30 -23 14 -27 21 -15 21 9 0 17 -6 17
-12 0 -7 7 -3 15 10 18 25 5 62 -21 62 -10 0 -14 6 -11 15 4 8 2 17 -3 20 -15
9 -12 25 4 19 8 -3 16 -1 19 3 3 5 -4 10 -15 10 -12 1 -25 8 -29 15 -6 9 -9 7
-9 -9z m80 -273 c0 -5 -4 -10 -10 -10 -5 0 -10 5 -10 10 0 6 5 10 10 10 6 0
10 -4 10 -10z m143 -128 c3 7 3 -4 1 -24 -2 -25 0 -38 8 -38 6 0 9 -3 5 -6 -3
-3 -19 4 -35 16 -26 19 -28 25 -18 46 10 21 12 22 22 8 9 -12 13 -12 17 -2z
m42 -22 c3 -5 -1 -10 -10 -10 -9 0 -13 5 -10 10 3 6 8 10 10 10 2 0 7 -4 10
-10z m5 -30 c0 -5 -4 -10 -10 -10 -5 0 -10 5 -10 10 0 6 5 10 10 10 6 0 10 -4
10 -10z m60 -4 c0 -2 -9 -6 -20 -9 -11 -3 -18 -1 -14 4 5 9 34 13 34 5z"/>
<path d="M1405 1880 c-3 -6 1 -7 9 -4 18 7 21 14 7 14 -6 0 -13 -4 -16 -10z"/>
<path d="M1312 1821 c-11 -7 -10 -10 3 -15 26 -10 35 -7 35 9 0 17 -18 19 -38
6z"/>
<path d="M1460 1824 c1 -16 28 -45 34 -36 3 5 -3 17 -14 27 -11 10 -20 14 -20
9z"/>
<path d="M1325 1780 c-3 -5 -2 -10 4 -10 5 0 13 5 16 10 3 6 2 10 -4 10 -5 0
-13 -4 -16 -10z"/>
<path d="M3183 1545 c-12 -14 -17 -27 -12 -31 6 -3 5 -11 -2 -20 -6 -8 -8 -14
-4 -14 4 0 1 -8 -6 -17 -9 -11 -2 -9 19 6 24 16 32 29 29 42 -3 11 -1 19 4 19
5 0 9 9 9 20 0 26 -10 25 -37 -5z"/>
<path d="M1743 1525 c0 -8 3 -13 5 -10 3 3 12 -1 21 -7 10 -8 9 -4 -3 10 -23
26 -23 26 -23 7z"/>
<path d="M1846 1415 c10 -8 24 -15 31 -15 6 0 13 -5 15 -12 2 -6 12 -9 21 -5
38 14 -4 47 -62 47 -24 0 -24 0 -5 -15z"/>
<path d="M1991 1420 c-8 -4 -20 -6 -26 -4 -7 3 -15 -4 -18 -15 -3 -14 -1 -19
6 -14 7 4 18 8 26 10 16 2 37 21 30 27 -2 3 -11 1 -18 -4z"/>
<path d="M3095 1420 c-16 -7 -17 -9 -3 -9 9 -1 20 4 23 9 7 11 7 11 -20 0z"/>
<path d="M2014 1405 c-8 -20 -1 -27 23 -23 18 3 18 4 0 21 -15 15 -18 16 -23
2z"/>
<path d="M2040 1408 c0 -4 4 -8 9 -8 6 0 12 4 15 8 3 5 -1 9 -9 9 -8 0 -15 -4
-15 -9z"/>
<path d="M3052 1395 c-11 -12 -10 -15 3 -15 8 0 15 7 15 15 0 18 -2 18 -18 0z"/>
<path d="M2176 1354 c6 -16 5 -17 -7 -6 -17 16 -30 16 -23 -1 5 -14 41 -20 49
-7 2 4 -2 13 -10 20 -13 11 -14 10 -9 -6z"/>
<path d="M2735 1339 c-4 -6 -5 -12 -2 -15 2 -3 7 2 10 11 7 17 1 20 -8 4z"/>
<path d="M2180 1318 c-24 -10 -24 -10 -5 -18 l20 -7 -20 -5 c-18 -5 -18 -6 3
-7 15 -1 21 -5 16 -13 -5 -7 -1 -9 13 -6 16 4 19 1 16 -16 -3 -13 3 -28 14
-37 24 -20 73 -41 73 -30 0 8 17 11 58 11 13 0 20 5 17 10 -9 14 8 13 23 -2 8
-8 14 -5 23 14 9 22 16 25 43 21 17 -3 27 -1 23 3 -18 18 -59 11 -69 -12 -8
-18 -14 -21 -24 -13 -7 6 -10 17 -7 24 5 16 -37 31 -62 22 -8 -4 -17 -2 -20 3
-3 4 0 10 6 12 6 2 0 9 -14 15 -22 10 -25 10 -20 -4 5 -13 3 -14 -16 -4 -12 7
-27 9 -33 5 -6 -4 -8 -3 -4 4 3 6 2 13 -4 17 -6 4 -8 11 -5 16 8 12 -13 11
-45 -3z"/>
</g>
</svg>
